<svg xmlns="http://www.w3.org/2000/svg" width="32" height="32" viewBox="0 0 32 32" fill="none">
  <rect width="32" height="32" rx="8" fill="#2A2859"/>
  <path d="M7 16c.8 0 1.6-.5 1.9-1.3 1.6-4.5 4.5-4.5 6.1 0 1.6 4.5 4.5 4.5 6.1 0 1.6-4.5 4.5-4.5 6.1 0 .3.8 1.1 1.3 1.9 1.3" stroke="#CBB7FB" stroke-width="2.5" stroke-linecap="round" stroke-linejoin="round"/>
  <path d="M7 22c.8 0 1.6-.5 1.9-1.3 1.6-4.5 4.5-4.5 6.1 0 1.6 4.5 4.5 4.5 6.1 0 1.6-4.5 4.5-4.5 6.1 0 .3.8 1.1 1.3 1.9 1.3" stroke="#CBB7FB" stroke-width="2.5" stroke-linecap="round" stroke-linejoin="round"/>
</svg>
